<svg width="26" height="26" viewBox="0 0 26 26" fill="none" xmlns="http://www.w3.org/2000/svg">
<path fill-rule="evenodd" clip-rule="evenodd" d="M24.591 16.1057C25.0513 14.388 25.1145 12.6574 24.837 11.0114C24.4654 12.2034 23.8022 13.2331 22.947 14.0413L22.9461 14.0499C22.3061 14.6802 21.5516 15.1842 20.7221 15.5341C19.7901 15.9273 18.7849 16.1169 17.7738 16.0903C16.7627 16.0638 15.7688 15.8216 14.8588 15.3801C13.9488 14.9386 13.1435 14.3078 12.4968 13.5301C11.8501 12.7523 11.377 11.8454 11.109 10.8701C10.8409 9.89473 10.7843 8.87341 10.9427 7.87441C11.1011 6.8754 11.471 5.92174 12.0277 5.07718C12.5469 4.28944 13.2173 3.61355 13.9995 3.08838C14.9968 2.39143 16.1693 1.95214 17.4056 1.83674C16.9856 1.6716 16.552 1.52838 16.1058 1.40881C9.70416 -0.306495 3.12412 3.4925 1.40882 9.89409C-0.306482 16.2957 3.49251 22.8757 9.8941 24.591C16.2957 26.3063 22.8757 22.5073 24.591 16.1057ZM22.0461 17.2663C20.0255 21.5635 15.1597 23.9314 10.4117 22.6592C5.07708 21.2298 1.91125 15.7464 3.34067 10.4117C4.32782 6.72765 7.24837 4.07793 10.7182 3.26172C10.5538 3.46956 10.3982 3.68476 10.2519 3.90679C9.52865 5.00414 9.04803 6.24325 8.84217 7.54128C8.63631 8.83931 8.70996 10.1663 9.0582 11.4336C9.40643 12.7009 10.0212 13.8792 10.8615 14.8898C11.7017 15.9003 12.748 16.7199 13.9304 17.2935C15.1129 17.8672 16.4041 18.1819 17.7179 18.2164C19.0317 18.2509 20.3378 18.0045 21.5487 17.4937C21.7169 17.4227 21.8828 17.3469 22.0461 17.2663ZM22.8603 5.6141L22.3359 4L21.8114 5.6141L20.1143 5.6141L21.4873 6.61167L20.9629 8.22578L22.3359 7.22821L23.7089 8.22578L23.1845 6.61167L24.5575 5.6141L22.8603 5.6141ZM16.3359 4L16.8603 5.6141L18.5575 5.6141L17.1845 6.61167L17.7089 8.22578L16.3359 7.22821L14.9629 8.22578L15.4873 6.61167L14.1143 5.6141L15.8114 5.6141L16.3359 4ZM19.8603 9.6141L19.3359 8L18.8114 9.6141L17.1143 9.6141L18.4873 10.6117L17.9629 12.2258L19.3359 11.2282L20.7089 12.2258L20.1845 10.6117L21.5575 9.6141L19.8603 9.6141Z" fill="url(#paint0_linear_9_1784)"/>
<defs>
<linearGradient id="paint0_linear_9_1784" x1="16.1058" y1="1.40881" x2="9.8941" y2="24.591" gradientUnits="userSpaceOnUse">
<stop stop-color="#F5BD52"/>
<stop offset="1" stop-color="#F5DA79"/>
</linearGradient>
</defs>
</svg>
